<svg width="460" height="460" viewBox="0 0 460 460" fill="none" xmlns="http://www.w3.org/2000/svg">
    <path fill-rule="evenodd" clip-rule="evenodd" d="M197.461 457.7C266.635 467.531 339.426 445.843 392.635 392.635C482.455 302.814 482.455 157.186 392.635 67.3655C302.814 -22.4552 157.186 -22.4552 67.3655 67.3655C14.1575 120.573 -7.53137 193.365 2.29976 262.539C41.8208 223.018 117.559 234.656 171.452 288.548C225.344 342.441 236.982 418.179 197.461 457.7ZM353.602 353.602C350.063 357.141 344.729 352.421 346.989 347.956C380.18 282.372 369.373 200.233 314.57 145.43C259.767 90.6275 177.628 79.8204 112.044 113.011C107.579 115.27 102.859 109.937 106.398 106.398C174.661 38.1341 285.339 38.1341 353.602 106.398C421.866 174.661 421.866 285.339 353.602 353.602Z" fill="#1B0449"/>
    <path d="M171.452 431.667C146.302 456.816 93.8754 445.166 54.3547 405.645C14.8341 366.125 3.18361 313.698 28.3332 288.548C53.4828 263.399 105.909 275.049 145.43 314.57C184.951 354.091 196.601 406.517 171.452 431.667Z" fill="#1B0449"/>
</svg>
