<svg width="112" height="30" viewBox="0 0 112 30" fill="none" xmlns="http://www.w3.org/2000/svg">
<path fill-rule="evenodd" clip-rule="evenodd" d="M12.8779 29.85C17.3892 30.4912 22.1365 29.0767 25.6066 25.6066C31.4645 19.7487 31.4645 10.2513 25.6066 4.3934C19.7487 -1.46447 10.2513 -1.46447 4.3934 4.3934C0.923313 7.86349 -0.491176 12.6108 0.149984 17.1221C2.72745 14.5446 7.66689 15.3036 11.1816 18.8184C14.6964 22.3331 15.4554 27.2726 12.8779 29.85ZM23.061 23.061C22.8302 23.2918 22.4823 22.9839 22.6297 22.6928C24.7943 18.4156 24.0895 13.0587 20.5154 9.48457C16.9413 5.91049 11.5844 5.20568 7.30724 7.37027C7.016 7.51763 6.70818 7.16979 6.93898 6.93898C11.391 2.48701 18.609 2.48701 23.061 6.93898C27.513 11.391 27.513 18.609 23.061 23.061Z" fill="white"/>
<path d="M11.1816 28.1522C9.54143 29.7924 6.12231 29.0326 3.54487 26.4551C0.967438 23.8777 0.207627 20.4586 1.84782 18.8184C3.48801 17.1782 6.90713 17.938 9.48457 20.5154C12.062 23.0929 12.8218 26.512 11.1816 28.1522Z" fill="white"/>
<path d="M48.0843 7C49.8034 7 51.0423 7.39708 51.8012 8.19124C52.5756 8.9854 52.9627 10.2545 52.9627 11.9985V14.3109C52.9627 16.0706 52.5756 17.3474 51.8012 18.1416C51.0423 18.9202 49.8034 19.3095 48.0843 19.3095H44.228V22.7431H40V7H48.0843ZM48.7115 12.2555C48.7115 11.7883 48.6573 11.4457 48.5489 11.2277C48.456 10.9942 48.2934 10.8384 48.0611 10.7606C47.8288 10.6672 47.488 10.6204 47.0389 10.6204H44.228V15.7358H47.0389C47.5035 15.7358 47.8442 15.7046 48.0611 15.6423C48.2934 15.5645 48.456 15.4243 48.5489 15.2219C48.6573 15.0039 48.7115 14.6613 48.7115 14.1942V12.2555Z" fill="white"/>
<path d="M69.9524 10.0599C72.3839 10.0599 73.5996 11.5314 73.5996 14.4745V22.7431H69.5807V15.1518C69.5807 14.1241 69.24 13.6102 68.5585 13.6102C68.2488 13.6102 67.8694 13.727 67.4202 13.9606C66.9866 14.1942 66.5917 14.4667 66.2355 14.7781V22.7431H62.2166V15.1518C62.2166 14.6691 62.1314 14.2954 61.961 14.0307C61.7907 13.7504 61.5351 13.6102 61.1944 13.6102C60.8847 13.6102 60.5052 13.727 60.0561 13.9606C59.6225 14.1786 59.2275 14.4433 58.8713 14.7547V22.7431H54.8524V10.3168H58.3138L58.4996 11.6715C59.2121 11.1732 59.8935 10.7839 60.5439 10.5036C61.1944 10.2078 61.8681 10.0599 62.565 10.0599C64.0982 10.0599 65.1514 10.6282 65.7244 11.765C66.4833 11.2355 67.1957 10.8229 67.8616 10.527C68.5276 10.2156 69.2245 10.0599 69.9524 10.0599Z" fill="white"/>
<path d="M83.7302 10.0599C86.4869 10.0599 87.8653 11.6949 87.8653 14.965V18.0482C87.8653 19.4808 87.5091 20.6564 86.7967 21.5752C86.0997 22.4939 84.7678 22.9533 82.801 22.9533C81.4381 22.9533 80.1682 22.8676 78.9911 22.6964C77.8296 22.5251 76.8539 22.3071 76.0641 22.0423V7H80.083V11.3212C81.4459 10.4803 82.6616 10.0599 83.7302 10.0599ZM83.8231 14.9883C83.8231 14.5367 83.7225 14.1708 83.5211 13.8905C83.3198 13.5946 83.0101 13.4467 82.5919 13.4467C82.1737 13.4467 81.7711 13.5557 81.3839 13.7737C81.0122 13.9762 80.5786 14.272 80.083 14.6613V19.4263C80.3618 19.5353 80.6715 19.6209 81.0122 19.6832C81.3684 19.7299 81.6936 19.7533 81.9879 19.7533C82.7623 19.7533 83.2579 19.6131 83.4747 19.3328C83.707 19.037 83.8231 18.6088 83.8231 18.0482V14.9883Z" fill="white"/>
<path d="M89.9183 15.3153C89.9183 14.0696 90.0654 13.0808 90.3597 12.3489C90.6539 11.6015 91.227 11.0331 92.0788 10.6438C92.946 10.2545 94.2082 10.0599 95.8654 10.0599C97.5225 10.0599 98.7847 10.2545 99.652 10.6438C100.519 11.0331 101.1 11.6015 101.394 12.3489C101.704 13.0808 101.859 14.0696 101.859 15.3153V17.7679C101.859 19.0136 101.712 20.0024 101.417 20.7343C101.123 21.4506 100.542 22.0034 99.6752 22.3927C98.8079 22.7664 97.538 22.9533 95.8654 22.9533C94.2392 22.9533 92.9925 22.7742 92.1252 22.4161C91.2734 22.0423 90.6926 21.4895 90.3829 20.7577C90.0732 20.0258 89.9183 19.0292 89.9183 17.7679V15.3153ZM93.9604 18.0248C93.9604 18.4297 93.9992 18.7489 94.0766 18.9825C94.154 19.2005 94.3321 19.3796 94.6109 19.5197C94.8897 19.6443 95.3233 19.7066 95.9118 19.7066C96.4694 19.7066 96.8875 19.6521 97.1663 19.5431C97.445 19.4185 97.6231 19.2394 97.7006 19.0058C97.7935 18.7723 97.84 18.453 97.84 18.0482V15.0117C97.84 14.5912 97.7935 14.2642 97.7006 14.0307C97.6231 13.7971 97.445 13.618 97.1663 13.4934C96.8875 13.3689 96.4694 13.3066 95.9118 13.3066C95.3233 13.3066 94.8897 13.3766 94.6109 13.5168C94.3321 13.6414 94.154 13.8204 94.0766 14.054C93.9992 14.2876 93.9604 14.6068 93.9604 15.0117V18.0248Z" fill="white"/>
<path d="M109.236 13.6102V18.1416C109.236 18.6866 109.321 19.0915 109.491 19.3562C109.677 19.6209 109.963 19.7533 110.351 19.7533C110.536 19.7533 110.792 19.7455 111.117 19.7299C111.458 19.7144 111.752 19.691 112 19.6599V22.7197C111.69 22.782 111.179 22.8443 110.467 22.9066C109.77 22.9689 109.228 23 108.841 23C107.803 23 107.029 22.8209 106.518 22.4628C106.006 22.1046 105.674 21.6219 105.519 21.0146C105.364 20.4073 105.286 19.5976 105.286 18.5854V13.6102H103.265V10.3401H105.286V7.46715H109.236V10.3401H112V13.6102H109.236Z" fill="white"/>
</svg>
